<svg width="848" height="110" viewBox="0 0 848 110" fill="none" xmlns="http://www.w3.org/2000/svg">
<path d="M67.1361 97.0887H33.568V63.5443H67.1361V97.0887ZM33.568 30H0V63.5443H33.568V30Z" fill="white"/>
<path d="M152.065 24.1214C153.954 24.1214 155.843 24.1214 157.597 24.5257V44.8739C155.978 44.4697 154.089 44.4697 152.739 44.4697C139.787 44.4697 129.397 53.7679 128.318 66.7045V95.2729H107V25.1995H128.318V42.3136C131.556 31.8025 139.652 24.1214 152.065 24.1214V24.1214ZM203.336 23.9867C219.257 23.9867 241.52 35.98 237.067 67.6478H188.09C190.518 74.9246 196.86 78.6978 205.36 78.6978C213.995 78.6978 216.694 76.8112 221.551 74.7899L233.289 86.1094C227.083 92.1735 218.718 96.6204 204.551 96.6204C187.145 96.6204 166.367 84.6271 166.367 60.5057C166.367 35.98 187.415 23.9867 203.336 23.9867V23.9867ZM203.336 42.1788C197.265 42.1788 191.058 45.6825 188.36 52.6898H218.178C216.019 45.6825 209.408 42.1788 203.336 42.1788ZM299.672 25.1995H320.991V95.2729H299.672V88.2655C298.728 90.6911 292.387 96.6204 281.593 96.6204C265.536 96.6204 247.052 85.1661 247.052 60.1014C247.052 35.98 265.536 23.9867 281.593 23.9867C292.387 23.9867 298.728 30.1855 299.672 31.6678V25.1995V25.1995ZM284.696 77.8893C293.466 77.8893 300.617 71.8252 300.617 60.1014C300.617 48.7819 293.466 42.7178 284.696 42.7178C275.521 42.7178 267.695 48.9166 267.695 60.1014C267.695 71.6905 275.521 77.8893 284.696 77.8893ZM369.294 23.9867C382.111 23.9867 392.905 29.3769 399.517 40.6965L383.326 48.3776C379.818 45.413 376.984 42.7178 369.563 42.7178C361.468 42.7178 353.238 48.9166 353.238 60.3709C353.238 71.6905 361.468 77.6198 369.563 77.6198C376.984 77.6198 379.818 75.1941 383.326 72.2295L399.787 79.9106C392.905 91.2302 382.381 96.3509 369.294 96.3509C353.642 96.3509 332.594 85.1661 332.594 60.3709C332.594 35.98 353.642 23.9867 369.294 23.9867ZM453.756 24.1214C466.844 24.1214 480.202 32.8806 480.202 55.1154V95.2729H458.884V56.5977C458.884 45.952 455.241 42.5831 448.494 42.5831C438.915 42.5831 433.383 51.8813 432.034 55.924V95.2729H410.715V0H432.034V37.3276C433.383 33.9586 440.534 24.1214 453.756 24.1214V24.1214ZM518.79 96.3509C505.702 96.3509 492.345 87.5918 492.345 65.3569V25.1995H513.663V63.8746C513.663 74.5204 517.306 77.8893 524.052 77.8893C533.632 77.8893 539.164 68.5911 540.513 64.5484V25.1995H561.831V95.2729H540.513V83.1448C539.164 86.5137 532.013 96.3509 518.79 96.3509Z" fill="white"/>
<path d="M592.4 95V25.2H615.9C621.167 25.2 625.867 26.0333 630 27.7C634.2 29.3 637.767 31.6333 640.7 34.7C643.633 37.7 645.867 41.3333 647.4 45.6C648.933 49.8667 649.7 54.6333 649.7 59.9C649.7 65.2333 648.933 70.0667 647.4 74.4C645.867 78.6667 643.633 82.3667 640.7 85.5C637.767 88.5667 634.2 90.9333 630 92.6C625.867 94.2 621.167 95 615.9 95H592.4ZM608.9 81.5H615.9C619.5 81.5 622.533 80.6333 625 78.9C627.533 77.1 629.433 74.5667 630.7 71.3C632.033 68.0333 632.7 64.2333 632.7 59.9C632.7 55.5667 632.033 51.8333 630.7 48.7C629.433 45.5 627.533 43.0333 625 41.3C622.533 39.5667 619.5 38.7 615.9 38.7H608.9V81.5ZM684.639 96.2C678.506 96.2 673.106 94.7667 668.439 91.9C663.839 88.9667 660.239 84.8 657.639 79.4C655.106 74 653.839 67.5667 653.839 60.1C653.839 52.5667 655.106 46.1 657.639 40.7C660.239 35.3 663.839 31.1667 668.439 28.3C673.106 25.4333 678.506 24 684.639 24C690.772 24 696.139 25.4333 700.739 28.3C705.339 31.1667 708.906 35.3 711.439 40.7C714.039 46.0333 715.339 52.5 715.339 60.1C715.339 67.5667 714.039 74 711.439 79.4C708.906 84.8 705.339 88.9667 700.739 91.9C696.139 94.7667 690.772 96.2 684.639 96.2ZM684.639 82.7C687.239 82.7 689.572 81.8333 691.639 80.1C693.706 78.3 695.339 75.7333 696.539 72.4C697.739 69 698.339 64.9 698.339 60.1C698.339 55.2333 697.739 51.1333 696.539 47.8C695.339 44.4 693.706 41.8333 691.639 40.1C689.572 38.3667 687.239 37.5 684.639 37.5C682.039 37.5 679.672 38.4 677.539 40.2C675.472 41.9333 673.839 44.5 672.639 47.9C671.439 51.2333 670.839 55.3 670.839 60.1C670.839 64.9 671.439 69 672.639 72.4C673.839 75.7333 675.472 78.3 677.539 80.1C679.672 81.8333 682.039 82.7 684.639 82.7ZM750.278 96.2C744.011 96.2 738.578 94.7333 733.978 91.8C729.445 88.8 725.911 84.6 723.378 79.2C720.911 73.7333 719.678 67.3667 719.678 60.1C719.678 52.7667 720.945 46.4 723.478 41C726.011 35.6 729.611 31.4333 734.278 28.5C738.945 25.5 744.478 24 750.878 24C755.878 24 760.478 24.9667 764.678 26.9C768.878 28.8333 772.311 31.6333 774.978 35.3C777.711 38.9667 779.211 43.4333 779.478 48.7H761.478C761.145 45.3 760.078 42.6 758.278 40.6C756.478 38.5333 754.011 37.5 750.878 37.5C748.211 37.5 745.778 38.3667 743.578 40.1C741.445 41.7667 739.745 44.3 738.478 47.7C737.278 51.0333 736.678 55.1667 736.678 60.1C736.678 64.9667 737.278 69.1 738.478 72.5C739.678 75.8333 741.278 78.3667 743.278 80.1C745.345 81.8333 747.678 82.7 750.278 82.7C752.478 82.7 754.378 82.2667 755.978 81.4C757.645 80.4667 758.978 79.1333 759.978 77.4C761.045 75.6667 761.678 73.5667 761.878 71.1H779.878C779.345 76.2333 777.811 80.7 775.278 84.5C772.811 88.2333 769.478 91.1333 765.278 93.2C761.078 95.2 756.078 96.2 750.278 96.2ZM815.017 96.2C809.284 96.2 804.351 95.1333 800.217 93C796.151 90.8 793.017 87.7333 790.817 83.8C788.684 79.8 787.617 75.1 787.617 69.7H803.817C803.817 73.9 804.717 77.1333 806.517 79.4C808.384 81.6 811.217 82.7 815.017 82.7C818.017 82.7 820.384 82.0667 822.117 80.8C823.917 79.4667 824.817 77.6 824.817 75.2C824.817 73.4 824.151 72 822.817 71C821.551 69.9333 819.817 69.0667 817.617 68.4C815.484 67.6667 813.117 67 810.517 66.4C807.984 65.7333 805.417 64.9333 802.817 64C800.284 63.0667 797.917 61.8333 795.717 60.3C793.584 58.7667 791.851 56.7667 790.517 54.3C789.251 51.8333 788.617 48.7 788.617 44.9C788.617 40.9667 789.684 37.4333 791.817 34.3C794.017 31.1667 797.051 28.6667 800.917 26.8C804.784 24.9333 809.317 24 814.517 24C819.251 24 823.651 24.9333 827.717 26.8C831.784 28.6 835.084 31.2333 837.617 34.7C840.151 38.1667 841.484 42.4333 841.617 47.5H825.117C824.984 45.2333 824.384 43.3667 823.317 41.9C822.317 40.4333 821.017 39.3333 819.417 38.6C817.884 37.8667 816.251 37.5 814.517 37.5C812.051 37.5 809.951 38.1 808.217 39.3C806.484 40.4333 805.617 42.1333 805.617 44.4C805.617 46.1333 806.251 47.5 807.517 48.5C808.851 49.5 810.584 50.3333 812.717 51C814.917 51.6 817.284 52.2 819.817 52.8C822.417 53.4 824.984 54.1667 827.517 55.1C830.117 55.9667 832.484 57.2 834.617 58.8C836.817 60.4 838.551 62.5333 839.817 65.2C841.151 67.8 841.817 71.1333 841.817 75.2C841.817 79.2667 840.651 82.9 838.317 86.1C836.051 89.2333 832.884 91.7 828.817 93.5C824.817 95.3 820.217 96.2 815.017 96.2Z" fill="#5B1AE4"/>
</svg>
