<svg width="562" height="98" viewBox="0 0 562 98" fill="none" xmlns="http://www.w3.org/2000/svg">
<path d="M67.1361 97.0887H33.568V63.5443H67.1361V97.0887ZM33.568 30H0V63.5443H33.568V30Z" fill="white"/>
<path d="M152.065 24.1214C153.954 24.1214 155.843 24.1214 157.597 24.5257V44.8739C155.978 44.4697 154.089 44.4697 152.739 44.4697C139.787 44.4697 129.397 53.7679 128.318 66.7045V95.2729H107V25.1995H128.318V42.3136C131.556 31.8025 139.652 24.1214 152.065 24.1214V24.1214ZM203.336 23.9867C219.257 23.9867 241.52 35.98 237.067 67.6478H188.09C190.518 74.9246 196.86 78.6978 205.36 78.6978C213.995 78.6978 216.694 76.8112 221.551 74.7899L233.289 86.1094C227.083 92.1735 218.718 96.6204 204.551 96.6204C187.145 96.6204 166.367 84.6271 166.367 60.5057C166.367 35.98 187.415 23.9867 203.336 23.9867V23.9867ZM203.336 42.1788C197.265 42.1788 191.058 45.6825 188.36 52.6898H218.178C216.019 45.6825 209.408 42.1788 203.336 42.1788ZM299.672 25.1995H320.991V95.2729H299.672V88.2655C298.728 90.6911 292.387 96.6204 281.593 96.6204C265.536 96.6204 247.052 85.1661 247.052 60.1014C247.052 35.98 265.536 23.9867 281.593 23.9867C292.387 23.9867 298.728 30.1855 299.672 31.6678V25.1995V25.1995ZM284.696 77.8893C293.466 77.8893 300.617 71.8252 300.617 60.1014C300.617 48.7819 293.466 42.7178 284.696 42.7178C275.521 42.7178 267.695 48.9166 267.695 60.1014C267.695 71.6905 275.521 77.8893 284.696 77.8893ZM369.294 23.9867C382.111 23.9867 392.905 29.3769 399.517 40.6965L383.326 48.3776C379.818 45.413 376.984 42.7178 369.563 42.7178C361.468 42.7178 353.238 48.9166 353.238 60.3709C353.238 71.6905 361.468 77.6198 369.563 77.6198C376.984 77.6198 379.818 75.1941 383.326 72.2295L399.787 79.9106C392.905 91.2302 382.381 96.3509 369.294 96.3509C353.642 96.3509 332.594 85.1661 332.594 60.3709C332.594 35.98 353.642 23.9867 369.294 23.9867ZM453.756 24.1214C466.844 24.1214 480.202 32.8806 480.202 55.1154V95.2729H458.884V56.5977C458.884 45.952 455.241 42.5831 448.494 42.5831C438.915 42.5831 433.383 51.8813 432.034 55.924V95.2729H410.715V0H432.034V37.3276C433.383 33.9586 440.534 24.1214 453.756 24.1214V24.1214ZM518.79 96.3509C505.702 96.3509 492.345 87.5918 492.345 65.3569V25.1995H513.663V63.8746C513.663 74.5204 517.306 77.8893 524.052 77.8893C533.632 77.8893 539.164 68.5911 540.513 64.5484V25.1995H561.831V95.2729H540.513V83.1448C539.164 86.5137 532.013 96.3509 518.79 96.3509Z" fill="white"/>
</svg>
