<svg width="841" height="110" viewBox="0 0 841 110" fill="none" xmlns="http://www.w3.org/2000/svg">
<path d="M67.1361 97.0887H33.568V63.5443H67.1361V97.0887ZM33.568 30H0V63.5443H33.568V30Z" fill="black"/>
<path d="M152.065 24.1214C153.954 24.1214 155.843 24.1214 157.597 24.5257V44.8739C155.978 44.4697 154.089 44.4697 152.739 44.4697C139.787 44.4697 129.397 53.7679 128.318 66.7045V95.2729H107V25.1995H128.318V42.3136C131.556 31.8025 139.652 24.1214 152.065 24.1214V24.1214ZM203.336 23.9867C219.257 23.9867 241.52 35.98 237.067 67.6478H188.09C190.518 74.9246 196.86 78.6978 205.36 78.6978C213.995 78.6978 216.694 76.8112 221.551 74.7899L233.289 86.1094C227.083 92.1735 218.718 96.6204 204.551 96.6204C187.145 96.6204 166.367 84.6271 166.367 60.5057C166.367 35.98 187.415 23.9867 203.336 23.9867V23.9867ZM203.336 42.1788C197.265 42.1788 191.058 45.6825 188.36 52.6898H218.178C216.019 45.6825 209.408 42.1788 203.336 42.1788ZM299.672 25.1995H320.991V95.2729H299.672V88.2655C298.728 90.6911 292.387 96.6204 281.593 96.6204C265.536 96.6204 247.052 85.1661 247.052 60.1014C247.052 35.98 265.536 23.9867 281.593 23.9867C292.387 23.9867 298.728 30.1855 299.672 31.6678V25.1995V25.1995ZM284.696 77.8893C293.466 77.8893 300.617 71.8252 300.617 60.1014C300.617 48.7819 293.466 42.7178 284.696 42.7178C275.521 42.7178 267.695 48.9166 267.695 60.1014C267.695 71.6905 275.521 77.8893 284.696 77.8893ZM369.294 23.9867C382.111 23.9867 392.905 29.3769 399.517 40.6965L383.326 48.3776C379.818 45.413 376.984 42.7178 369.563 42.7178C361.468 42.7178 353.238 48.9166 353.238 60.3709C353.238 71.6905 361.468 77.6198 369.563 77.6198C376.984 77.6198 379.818 75.1941 383.326 72.2295L399.787 79.9106C392.905 91.2302 382.381 96.3509 369.294 96.3509C353.642 96.3509 332.594 85.1661 332.594 60.3709C332.594 35.98 353.642 23.9867 369.294 23.9867ZM453.756 24.1214C466.844 24.1214 480.202 32.8806 480.202 55.1154V95.2729H458.884V56.5977C458.884 45.952 455.241 42.5831 448.494 42.5831C438.915 42.5831 433.383 51.8813 432.034 55.924V95.2729H410.715V0H432.034V37.3276C433.383 33.9586 440.534 24.1214 453.756 24.1214V24.1214ZM518.79 96.3509C505.702 96.3509 492.345 87.5918 492.345 65.3569V25.1995H513.663V63.8746C513.663 74.5204 517.306 77.8893 524.052 77.8893C533.632 77.8893 539.164 68.5911 540.513 64.5484V25.1995H561.831V95.2729H540.513V83.1448C539.164 86.5137 532.013 96.3509 518.79 96.3509Z" fill="black"/>
<path d="M585.4 95V25.2H608.9C614.167 25.2 618.867 26.0333 623 27.7C627.2 29.3 630.767 31.6333 633.7 34.7C636.633 37.7 638.867 41.3333 640.4 45.6C641.933 49.8667 642.7 54.6333 642.7 59.9C642.7 65.2333 641.933 70.0667 640.4 74.4C638.867 78.6667 636.633 82.3667 633.7 85.5C630.767 88.5667 627.2 90.9333 623 92.6C618.867 94.2 614.167 95 608.9 95H585.4ZM601.9 81.5H608.9C612.5 81.5 615.533 80.6333 618 78.9C620.533 77.1 622.433 74.5667 623.7 71.3C625.033 68.0333 625.7 64.2333 625.7 59.9C625.7 55.5667 625.033 51.8333 623.7 48.7C622.433 45.5 620.533 43.0333 618 41.3C615.533 39.5667 612.5 38.7 608.9 38.7H601.9V81.5ZM677.639 96.2C671.506 96.2 666.106 94.7667 661.439 91.9C656.839 88.9667 653.239 84.8 650.639 79.4C648.106 74 646.839 67.5667 646.839 60.1C646.839 52.5667 648.106 46.1 650.639 40.7C653.239 35.3 656.839 31.1667 661.439 28.3C666.106 25.4333 671.506 24 677.639 24C683.772 24 689.139 25.4333 693.739 28.3C698.339 31.1667 701.906 35.3 704.439 40.7C707.039 46.0333 708.339 52.5 708.339 60.1C708.339 67.5667 707.039 74 704.439 79.4C701.906 84.8 698.339 88.9667 693.739 91.9C689.139 94.7667 683.772 96.2 677.639 96.2ZM677.639 82.7C680.239 82.7 682.572 81.8333 684.639 80.1C686.706 78.3 688.339 75.7333 689.539 72.4C690.739 69 691.339 64.9 691.339 60.1C691.339 55.2333 690.739 51.1333 689.539 47.8C688.339 44.4 686.706 41.8333 684.639 40.1C682.572 38.3667 680.239 37.5 677.639 37.5C675.039 37.5 672.672 38.4 670.539 40.2C668.472 41.9333 666.839 44.5 665.639 47.9C664.439 51.2333 663.839 55.3 663.839 60.1C663.839 64.9 664.439 69 665.639 72.4C666.839 75.7333 668.472 78.3 670.539 80.1C672.672 81.8333 675.039 82.7 677.639 82.7ZM743.278 96.2C737.011 96.2 731.578 94.7333 726.978 91.8C722.445 88.8 718.911 84.6 716.378 79.2C713.911 73.7333 712.678 67.3667 712.678 60.1C712.678 52.7667 713.945 46.4 716.478 41C719.011 35.6 722.611 31.4333 727.278 28.5C731.945 25.5 737.478 24 743.878 24C748.878 24 753.478 24.9667 757.678 26.9C761.878 28.8333 765.311 31.6333 767.978 35.3C770.711 38.9667 772.211 43.4333 772.478 48.7H754.478C754.145 45.3 753.078 42.6 751.278 40.6C749.478 38.5333 747.011 37.5 743.878 37.5C741.211 37.5 738.778 38.3667 736.578 40.1C734.445 41.7667 732.745 44.3 731.478 47.7C730.278 51.0333 729.678 55.1667 729.678 60.1C729.678 64.9667 730.278 69.1 731.478 72.5C732.678 75.8333 734.278 78.3667 736.278 80.1C738.345 81.8333 740.678 82.7 743.278 82.7C745.478 82.7 747.378 82.2667 748.978 81.4C750.645 80.4667 751.978 79.1333 752.978 77.4C754.045 75.6667 754.678 73.5667 754.878 71.1H772.878C772.345 76.2333 770.811 80.7 768.278 84.5C765.811 88.2333 762.478 91.1333 758.278 93.2C754.078 95.2 749.078 96.2 743.278 96.2ZM808.017 96.2C802.284 96.2 797.351 95.1333 793.217 93C789.151 90.8 786.017 87.7333 783.817 83.8C781.684 79.8 780.617 75.1 780.617 69.7H796.817C796.817 73.9 797.717 77.1333 799.517 79.4C801.384 81.6 804.217 82.7 808.017 82.7C811.017 82.7 813.384 82.0667 815.117 80.8C816.917 79.4667 817.817 77.6 817.817 75.2C817.817 73.4 817.151 72 815.817 71C814.551 69.9333 812.817 69.0667 810.617 68.4C808.484 67.6667 806.117 67 803.517 66.4C800.984 65.7333 798.417 64.9333 795.817 64C793.284 63.0667 790.917 61.8333 788.717 60.3C786.584 58.7667 784.851 56.7667 783.517 54.3C782.251 51.8333 781.617 48.7 781.617 44.9C781.617 40.9667 782.684 37.4333 784.817 34.3C787.017 31.1667 790.051 28.6667 793.917 26.8C797.784 24.9333 802.317 24 807.517 24C812.251 24 816.651 24.9333 820.717 26.8C824.784 28.6 828.084 31.2333 830.617 34.7C833.151 38.1667 834.484 42.4333 834.617 47.5H818.117C817.984 45.2333 817.384 43.3667 816.317 41.9C815.317 40.4333 814.017 39.3333 812.417 38.6C810.884 37.8667 809.251 37.5 807.517 37.5C805.051 37.5 802.951 38.1 801.217 39.3C799.484 40.4333 798.617 42.1333 798.617 44.4C798.617 46.1333 799.251 47.5 800.517 48.5C801.851 49.5 803.584 50.3333 805.717 51C807.917 51.6 810.284 52.2 812.817 52.8C815.417 53.4 817.984 54.1667 820.517 55.1C823.117 55.9667 825.484 57.2 827.617 58.8C829.817 60.4 831.551 62.5333 832.817 65.2C834.151 67.8 834.817 71.1333 834.817 75.2C834.817 79.2667 833.651 82.9 831.317 86.1C829.051 89.2333 825.884 91.7 821.817 93.5C817.817 95.3 813.217 96.2 808.017 96.2Z" fill="#5B1AE4"/>
</svg>
